{"title":"Rake.S02E06.PDTV.XviD-PJA.avi","uid":8151573,"size":578019688,"categoryP":"video","categoryS":"tv_shows","magnet":"?xt=urn:btih:2f1c7caacd85ab09d8f5a731bd623966691584ae&amp;dn=Rake.S02E06.PDTV.XviD-PJA.avi&amp;tr=udp%3A%2F%2Ftracker.openbittorrent.com%3A80&amp;tr=udp%3A%2F%2Fopen.demonii.com%3A1337&amp;tr=udp%3A%2F%2Ftracker.coppersurfer.tk%3A6969&amp;tr=udp%3A%2F%2Fexodus.desync.com%3A6969","seeders":1,"leechers":2,"uploader":null,"files":1,"time":1361049704,"description":"General\nComplete name                            : Rake.S02E06.PDTV.XviD-PJA.avi\nFormat                                   : AVI\nFormat/Info                              : Audio Video Interleave\nFile size                                : 551 MiB\nDuration                                 : 55mn 14s\nOverall bit rate                         : 1 395 Kbps\n\nVideo\nID                                       : 0\nFormat                                   : xvid\nCodec ID                                 : xvid\nDuration                                 : 55mn 13s\nBit rate                                 : 1 254 Kbps\nWidth                                    : 640 pixels\nHeight                                   : 360 pixels\nDisplay aspect ratio                     : 16:9\nFrame rate                               : 25.000 fps\nBits/(Pixel*Frame)                       : 0.218\nStream size                              : 496 MiB (90%)\n\nAudio\nID                                       : 1\nFormat                                   : MPEG Audio\nFormat version                           : Version 1\nFormat profile                           : Layer 3\nMode                                     : Joint stereo\nMode extension                           : MS Stereo\nCodec ID                                 : 55\nCodec ID/Hint                            : MP3\nDuration                                 : 55mn 14s\nBit rate mode                            : Constant\nBit rate                                 : 128 Kbps\nChannel(s)                               : 2 channels\nSampling rate                            : 48.0 KHz\nCompression mode                         : Lossy\nStream size                              : 50.6 MiB (9%)\nAlignment                                : Aligned on interleaves\nInterleave, duration                     : 24 ms (0.60 video frame)","torrent":{"xt":"urn:btih:2f1c7caacd85ab09d8f5a731bd623966691584ae","amp;dn":"Rake.S02E06.PDTV.XviD-PJA.avi","amp;tr":["udp%3A%2F%2Ftracker.openbittorrent.com%3A80","udp%3A%2F%2Fopen.demonii.com%3A1337","udp%3A%2F%2Ftracker.coppersurfer.tk%3A6969","udp%3A%2F%2Fexodus.desync.com%3A6969"],"infoHash":"2f1c7caacd85ab09d8f5a731bd623966691584ae","infoHashBuffer":{"type":"Buffer","data":[47,28,124,170,205,133,171,9,216,245,167,49,189,98,57,102,105,21,132,174]},"announce":[],"urlList":[]}}